<svg width="26" height="16" viewBox="0 0 26 16" fill="none" xmlns="http://www.w3.org/2000/svg">
<path d="M5.01667 2.15556C7.28969 0.745382 9.95198 0 12.7157 0C15.4793 0 18.1416 0.745382 20.4146 2.15556C22.6451 3.53931 24.3601 5.46748 25.3741 7.73164C25.4505 7.9024 25.4505 8.0976 25.3741 8.26836C24.3601 10.5325 22.6451 12.4607 20.4146 13.8444C18.1416 15.2546 15.4793 16 12.7157 16C9.95198 16 7.28969 15.2546 5.01667 13.8444C2.78616 12.4607 1.07125 10.5325 0.0572345 8.26836C-0.0191967 8.0976 -0.0191967 7.9024 0.0572345 7.73164C1.07125 5.46748 2.78622 3.53931 5.01667 2.15556ZM12.7157 13.6385C15.8248 13.6385 18.3542 11.1091 18.3542 7.99994C18.3542 4.89083 15.8248 2.36138 12.7157 2.36138C9.60648 2.36138 7.07709 4.89083 7.07709 7.99994C7.07709 11.1091 9.60648 13.6385 12.7157 13.6385Z" fill="black"/>
<path d="M12.7153 12.3255C10.3264 12.3255 8.38977 10.3889 8.38977 8.00004C8.38977 5.61113 10.3264 3.67453 12.7153 3.67453C15.1042 3.67453 17.0408 5.61113 17.0408 8.00004C17.0408 10.3889 15.1042 12.3255 12.7153 12.3255Z" fill="black"/>
</svg>
