<svg width="18" height="19" viewBox="0 0 18 19" fill="none" xmlns="http://www.w3.org/2000/svg">
<path d="M16.002 14.5913C16.3921 14.4693 16.7478 14.2904 17.016 14.053C17.285 13.8147 17.5 13.4833 17.5 13.0772C17.5 12.4461 17.0013 12.0091 16.5026 11.7597C15.974 11.4953 15.2786 11.3462 14.5374 11.3462C13.7971 11.3462 13.1022 11.4955 12.5738 11.76C12.0756 12.0094 11.5769 12.4464 11.5769 13.0772C11.5769 13.4847 11.7913 13.8162 12.0615 14.0547C12.3299 14.2916 12.6857 14.4692 13.0746 14.5912C13.5081 14.7324 14.0118 14.8077 14.5369 14.8077C15.0644 14.8077 15.568 14.7325 16.002 14.5913Z" stroke="black"/>
<path d="M11.5769 15.9545L12.3033 16.3234C12.4967 16.4217 12.7635 16.5198 13.1304 16.5987C13.5467 16.6879 14.0334 16.7369 14.5363 16.7369C15.0414 16.7369 15.5291 16.6879 15.9463 16.5984L11.5769 15.9545ZM11.5769 15.9545V16.7692M11.5769 15.9545V16.7692M11.5769 16.7692V17.1653C11.5769 17.4956 11.7752 17.7338 11.9575 17.88C12.1445 18.0299 12.3845 18.1431 12.6368 18.2287C13.1463 18.4017 13.818 18.5 14.5369 18.5C15.2568 18.5 15.9294 18.4018 16.4393 18.2289C16.6918 18.1433 16.932 18.0302 17.1192 17.8802C17.3016 17.734 17.5 17.4957 17.5 17.1653V16.7692V15.9554M11.5769 16.7692L17.5 15.9554M17.5 15.9554L16.774 16.3232M17.5 15.9554L16.774 16.3232M16.774 16.3232C16.5799 16.4215 16.3136 16.5193 15.9466 16.5983L16.774 16.3232Z" stroke="black"/>
<path d="M9.97486 1.57174L8.39281 2.52505L6.80525 1.57139L6.54777 1.41672L6.2903 1.57139L4.70154 2.52577L3.10174 1.57069L2.84464 1.4172L2.58797 1.57139L0.742529 2.67996L0.5 2.82565V3.10857V16.4914C0.5 17.6032 1.40153 18.5 2.51303 18.5H10.751H12.0754L11.0815 17.6248C10.8183 17.3931 10.7066 17.1467 10.7066 16.8943V15.0263V14.8269V13.1128L10.7162 13.0434C10.7589 12.7343 10.9938 12.4043 11.5225 12.1354C12.0484 11.868 12.8074 11.6966 13.7352 11.6966C14.4705 11.6966 15.1033 11.8039 15.5986 11.9837L16.2692 12.2271V11.5137V3.10857V2.8261L16.0273 2.68031L14.1876 1.57174L13.9299 1.41648L13.6721 1.57139L12.0837 2.52553L10.4898 1.57104L10.2321 1.41672L9.97486 1.57174ZM11.0038 10.5686H4.07477C4.07148 10.5686 4.06963 10.568 4.06832 10.5675C4.06669 10.5668 4.06483 10.5656 4.06309 10.5639C4.06135 10.5621 4.06032 10.5604 4.05979 10.5592C4.05941 10.5583 4.05897 10.5569 4.05897 10.5543C4.05897 10.5516 4.05941 10.5503 4.05979 10.5494C4.06032 10.5482 4.06135 10.5464 4.06309 10.5447C4.06483 10.543 4.06669 10.5418 4.06832 10.5411C4.06962 10.5406 4.07148 10.54 4.07477 10.54H11.0038C11.0071 10.54 11.0089 10.5406 11.0102 10.5411C11.0118 10.5418 11.0137 10.543 11.0154 10.5447C11.0172 10.5465 11.0182 10.5482 11.0187 10.5494C11.0191 10.5503 11.0196 10.5516 11.0196 10.5543C11.0196 10.5569 11.0191 10.5583 11.0187 10.5592C11.0182 10.5604 11.0172 10.5621 11.0154 10.5639C11.0137 10.5656 11.0118 10.5668 11.0102 10.5675C11.0089 10.568 11.0071 10.5686 11.0038 10.5686ZM4.0742 7.44114H12.695C12.6983 7.44114 12.7002 7.44171 12.7015 7.44226C12.7031 7.44295 12.705 7.44413 12.7067 7.44586C12.7085 7.44759 12.7095 7.44929 12.71 7.45054C12.7104 7.45145 12.7108 7.45277 12.7108 7.45543C12.7108 7.45809 12.7104 7.4594 12.71 7.46031C12.7095 7.46156 12.7085 7.46326 12.7067 7.465C12.705 7.46673 12.7031 7.46791 12.7015 7.4686C12.7002 7.46914 12.6983 7.46971 12.695 7.46971H4.0742C4.07091 7.46971 4.06905 7.46914 4.06775 7.4686C4.06612 7.46791 4.06425 7.46673 4.06251 7.465C4.06078 7.46326 4.05975 7.46156 4.05922 7.46031C4.05883 7.4594 4.0584 7.45809 4.0584 7.45543C4.0584 7.45277 4.05883 7.45145 4.05922 7.45054C4.05975 7.44929 4.06078 7.44759 4.06251 7.44586C4.06425 7.44413 4.06612 7.44295 4.06775 7.44226C4.06905 7.44171 4.07091 7.44114 4.0742 7.44114ZM7.9542 13.6686H4.0742C4.07091 13.6686 4.06905 13.668 4.06775 13.6675C4.06612 13.6668 4.06425 13.6656 4.06251 13.6639C4.06078 13.6621 4.05975 13.6604 4.05922 13.6592C4.05883 13.6583 4.0584 13.6569 4.0584 13.6543C4.0584 13.6516 4.05883 13.6503 4.05922 13.6494C4.05975 13.6482 4.06078 13.6465 4.06251 13.6447C4.06425 13.643 4.06612 13.6418 4.06775 13.6411C4.06905 13.6406 4.07091 13.64 4.0742 13.64H7.95478C7.9563 13.64 7.95752 13.6401 7.95852 13.6403C7.95967 13.6405 7.96053 13.6408 7.96123 13.6411C7.96286 13.6418 7.96473 13.643 7.96646 13.6447C7.9682 13.6465 7.96923 13.6482 7.96976 13.6494C7.97014 13.6503 7.97058 13.6516 7.97058 13.6543C7.97058 13.6568 7.97018 13.658 7.96981 13.6588C7.9693 13.66 7.96826 13.6618 7.96645 13.6636C7.96463 13.6654 7.96266 13.6666 7.96089 13.6674C7.95945 13.668 7.9575 13.6686 7.9542 13.6686Z" stroke="black"/>
<path d="M15.8549 14.4792L15.8548 14.4792L15.8477 14.4823C15.4715 14.6485 15.0155 14.7428 14.5374 14.7428C14.0617 14.7428 13.6067 14.6488 13.2224 14.4789L13.2225 14.4789L13.215 14.4757C12.8766 14.3327 12.6241 14.151 12.4318 13.9572L11.5769 13.0959V14.3094V15.0994C11.5769 15.9773 12.2425 16.6335 13.0292 16.9721L13.0297 16.9723C13.474 17.163 13.9932 17.2692 14.5369 17.2692C15.0838 17.2692 15.6032 17.1631 16.0475 16.9722L16.0482 16.9719C16.8351 16.6321 17.5 15.9715 17.5 15.0994V14.3077V13.0899L16.6442 13.9563C16.452 14.151 16.1974 14.3343 15.8549 14.4792Z" stroke="black"/>
</svg>
