<svg width="18" height="18" viewBox="0 0 18 18" fill="none" xmlns="http://www.w3.org/2000/svg">
<path d="M1 0.5H0.5V1V2.60001V3.10001H1H1.29999V17V17.5H1.79999H7.39999H7.89999V17V14.3H10.1V17V17.5H10.6H16.2H16.7V17V3.10001H17H17.5V2.60001V1V0.5H17H1ZM5.30001 11.7H4.69999V11.1H5.30001V11.7ZM5.30001 8.49998H4.69999V7.89997H5.30001V8.49998ZM5.30001 5.3H4.69999V4.69999H5.30001V5.3ZM9.30003 11.7H8.70001V11.1H9.30003V11.7ZM9.30003 8.49998H8.70001V7.89997H9.30003V8.49998ZM9.30003 5.3H8.70001V4.69999H9.30003V5.3ZM13.3 11.7H12.7V11.1H13.3V11.7ZM13.3 8.49998H12.7V7.89997H13.3V8.49998ZM13.3 5.3H12.7V4.69999H13.3V5.3Z" stroke="black"/>
</svg>
