<svg width="23" height="22" viewBox="0 0 23 22" fill="none" xmlns="http://www.w3.org/2000/svg">
<path d="M14.79 7.93L14.91 8.17H15.17L21.72 9.12L16.98 13.74L16.79 13.93V14.19L17.91 20.71L12.05 17.63L11.82 17.51L11.59 17.63L5.77 20.74L6.89 14.22V13.96L6.7 13.77L2 9.15L8.55 8.2H8.81L8.93 7.96L11.86 2L14.79 7.93Z" stroke="black"/>
<path d="M12.0898 3.03999L11.4498 2.81999L9.05981 8.01999L8.94981 8.24999L8.68981 8.28999L2.30981 9.21999L6.92981 13.71L7.10981 13.89L7.06981 14.14L5.97981 20.49L11.6798 17.5L11.9098 17.38" fill="black"/>
<path d="M12.0898 3.03999L11.4498 2.81999L9.05981 8.01999L8.94981 8.24999L8.68981 8.28999L2.30981 9.21999L6.92981 13.71L7.10981 13.89L7.06981 14.14L5.97981 20.49L11.6798 17.5L11.9098 17.38" stroke="black"/>
</svg>
