<svg width="21" height="20" viewBox="0 0 21 20" fill="none" xmlns="http://www.w3.org/2000/svg">
<path d="M20.9815 7.61176C20.9371 7.47575 20.8195 7.37657 20.6778 7.3559L13.8779 6.36818L10.8369 0.209643C10.7738 0.0811521 10.6429 0 10.5001 0C10.3573 0 10.2261 0.0811521 10.1633 0.209643L7.12195 6.36855L0.322058 7.35628C0.180346 7.37694 0.0630678 7.47575 0.0183366 7.61213C-0.0256428 7.74776 0.0108187 7.89729 0.113437 7.99686L5.03425 12.7908L3.87236 19.5603C3.84831 19.7012 3.90619 19.8435 4.02159 19.9277C4.13774 20.0126 4.29148 20.0235 4.41741 19.9563L10.5001 16.7605L16.582 19.9563C16.6369 19.9852 16.6974 19.9995 16.7572 19.9995C16.835 19.9995 16.9125 19.9754 16.9782 19.9277C17.094 19.8435 17.1519 19.7012 17.1275 19.5603L15.966 12.7912L20.8868 7.99686C20.989 7.89654 21.0258 7.74739 20.9815 7.61176Z" fill="black"/>
</svg>
