<svg width="14" height="18" viewBox="0 0 14 18" fill="none" xmlns="http://www.w3.org/2000/svg">
<path d="M6.99995 8.2C5.01184 8.2 3.4 6.58824 3.4 4.60002C3.4 2.61176 3.92919 1 6.99995 1C10.0707 1 10.6 2.61176 10.6 4.60002C10.6 6.58824 8.98816 8.2 6.99995 8.2Z" stroke="black"/>
<path d="M1.00672 14.3638C1.06555 10.1573 1.55037 8.95872 5.26039 8.2C5.26039 8.2 5.78263 8.95407 6.99987 8.95407C8.21711 8.95407 8.73944 8.2 8.73944 8.2C12.409 8.95045 12.9233 10.1313 12.9909 14.2272C12.9964 14.5616 12.999 14.5792 13 14.5404C12.9998 14.6131 12.9995 14.7477 12.9995 14.9823C12.9995 14.9823 12.1162 17 6.99987 17C1.88358 17 1.00023 14.9823 1.00023 14.9823C1.00023 14.8316 1.00014 14.7267 1 14.6554C1.00099 14.6794 1.00298 14.6329 1.00672 14.3638Z" stroke="black"/>
</svg>
