<svg width="16" height="17" viewBox="0 0 16 17" fill="none" xmlns="http://www.w3.org/2000/svg">
<path d="M9.70699 2.13036C9.30216 2.13036 8.98608 1.80017 8.98608 1.40946C8.98608 0.984403 9.3562 0.650053 9.77797 0.692169C10.1527 0.732126 10.4279 1.04157 10.4279 1.40946C10.4279 1.80033 10.112 2.13036 9.70699 2.13036Z" fill="black"/>
<path d="M14.5611 9.14081H14.5615C14.599 8.74466 14.9508 8.45381 15.3472 8.49125C15.7434 8.52873 16.0343 8.88058 15.9968 9.27705C15.9611 9.6501 15.6471 9.9298 15.2798 9.9298C14.8518 9.92983 14.5213 9.56239 14.5611 9.14081Z" fill="black"/>
<path d="M14.3675 6.80403C14.2644 6.41945 14.4926 6.02439 14.8772 5.92127C15.2618 5.81819 15.6573 6.04636 15.7603 6.43098C15.8635 6.81557 15.6349 7.21098 15.2507 7.3141C15.1879 7.33069 15.1252 7.33859 15.0636 7.33859C14.7449 7.33859 14.4537 7.1263 14.3675 6.80403Z" fill="black"/>
<path d="M13.3662 4.6871C13.1344 4.36307 13.2091 3.91284 13.5327 3.68109C13.8564 3.44969 14.3066 3.52394 14.5384 3.84798C14.7701 4.17163 14.6955 4.62185 14.3719 4.8536C14.2498 4.94123 14.1033 4.98839 13.953 4.98843C13.7281 4.98843 13.5068 4.88354 13.3662 4.6871Z" fill="black"/>
<path d="M11.4903 2.05151C11.7127 1.72132 12.1607 1.63444 12.4909 1.85685C12.821 2.07961 12.9082 2.52768 12.6855 2.85745C12.5464 3.064 12.3189 3.17537 12.0872 3.17537C11.5147 3.17537 11.1662 2.5318 11.4903 2.05151Z" fill="black"/>
<path d="M14.5737 12.4343C14.177 12.4343 13.8528 12.1116 13.8528 11.7134C13.8528 11.2875 14.2223 10.9542 14.6447 10.9961C15.0259 11.038 15.2946 11.3502 15.2946 11.7134C15.2946 12.1018 14.9796 12.4343 14.5737 12.4343Z" fill="black"/>
<path d="M13.6325 13.0889C13.3462 12.8535 12.9282 12.8737 12.6658 13.1354C11.4777 14.3207 9.88137 15.007 8.20374 15.0539C4.5779 15.1552 1.54567 12.2877 1.4444 8.66191C1.37244 6.08642 2.81283 3.73836 5.05071 2.60616L5.28236 3.55588C5.33582 3.77513 5.60905 3.85076 5.76765 3.69022L7.97318 1.45765C8.12408 1.30491 8.06109 1.04674 7.85682 0.98065L4.871 0.0143992C4.6563 -0.0550745 4.44858 0.137847 4.50208 0.357095L4.70157 1.17496C1.80172 2.49238 -0.0877309 5.44846 0.00313909 8.70215C0.126909 13.1331 3.81269 16.6189 8.24399 16.4951C10.2889 16.4381 12.2347 15.6016 13.6832 14.1571C13.9853 13.8559 13.962 13.3598 13.6325 13.0889Z" fill="black"/>
<path d="M15.2645 8.48834C15.3368 8.61636 15.368 8.76346 15.354 8.90979C15.3187 9.27827 15.0119 9.55516 14.6504 9.56193C14.7732 9.77995 15.0065 9.92986 15.2798 9.92986C15.6471 9.92986 15.9611 9.65016 15.9968 9.27711C16.0371 8.85063 15.6983 8.47993 15.2645 8.48834Z" fill="black"/>
<path d="M15.7603 6.43102C15.6726 6.10402 15.3736 5.89025 15.0496 5.89685C15.3157 6.37064 14.9814 6.95987 14.4353 6.97086C14.5624 7.19752 14.8038 7.33863 15.0635 7.33863C15.1252 7.33863 15.1879 7.3307 15.2506 7.31414C15.6349 7.21102 15.8634 6.81561 15.7603 6.43102Z" fill="black"/>
<path d="M14.5383 3.84792C14.3946 3.64701 14.1669 3.54238 13.9375 3.54683C14.2054 4.02164 13.866 4.61014 13.324 4.62058C13.4567 4.85632 13.7001 4.98841 13.9529 4.98841C14.5343 4.98837 14.8808 4.32622 14.5383 3.84792Z" fill="black"/>
<path d="M12.491 1.85689C12.3677 1.77378 12.2217 1.73098 12.0731 1.73441C12.2022 1.96448 12.2005 2.25682 12.0428 2.49018C11.907 2.6919 11.6868 2.80255 11.4607 2.80761C11.581 3.02119 11.8072 3.17541 12.0872 3.17541C12.319 3.17541 12.5465 3.06404 12.6856 2.85749C12.9084 2.52772 12.8211 2.07965 12.491 1.85689Z" fill="black"/>
<path d="M14.6447 10.996C14.6162 10.9933 14.5875 10.9922 14.5589 10.9928C14.6198 11.1006 14.6518 11.2223 14.6518 11.346C14.6518 11.7297 14.3443 12.0586 13.9456 12.0666C14.0695 12.286 14.3048 12.4342 14.5737 12.4342C14.9795 12.4342 15.2946 12.1017 15.2946 11.7133C15.2946 11.3502 15.0259 11.038 14.6447 10.996Z" fill="black"/>
<path d="M13.6324 13.0889C13.4943 12.9751 13.3188 12.9169 13.1401 12.9257C13.3053 13.2011 13.272 13.5668 13.0303 13.8079C11.5818 15.2525 9.63604 16.0889 7.59112 16.146C6.2775 16.1827 5.02939 15.9021 3.92017 15.3738C5.18207 16.1251 6.66557 16.5392 8.24387 16.4952C10.2888 16.4381 12.2346 15.6017 13.6831 14.1571C13.9852 13.8559 13.9619 13.3598 13.6324 13.0889Z" fill="black"/>
</svg>
