<svg width="23" height="23" viewBox="0 0 23 23" fill="none" xmlns="http://www.w3.org/2000/svg">
<g clipPath="url(#clip0_28_141)">
<path d="M15.769 0C15.822 0 15.875 0 15.931 0C16.061 1.606 15.448 2.806 14.703 3.675C13.972 4.538 12.971 5.375 11.352 5.248C11.244 3.665 11.858 2.554 12.602 1.687C13.292 0.879 14.557 0.16 15.769 0Z" fill="white"/>
<path d="M20.67 16.716C20.67 16.732 20.67 16.746 20.67 16.761C20.215 18.139 19.566 19.32 18.774 20.416C18.051 21.411 17.165 22.75 15.583 22.75C14.216 22.75 13.308 21.871 11.907 21.847C10.425 21.823 9.61 22.582 8.255 22.773C8.1 22.773 7.945 22.773 7.793 22.773C6.798 22.629 5.995 21.841 5.41 21.131C3.685 19.033 2.352 16.323 2.104 12.855C2.104 12.515 2.104 12.176 2.104 11.836C2.209 9.35399 3.415 7.33599 5.018 6.35799C5.864 5.83799 7.027 5.39499 8.322 5.59299C8.877 5.67899 9.444 5.86899 9.941 6.05699C10.412 6.23799 11.001 6.55899 11.559 6.54199C11.937 6.53099 12.313 6.33399 12.694 6.19499C13.81 5.79199 14.904 5.32999 16.346 5.54699C18.079 5.80899 19.309 6.57899 20.069 7.76699C18.603 8.69999 17.444 10.106 17.642 12.507C17.818 14.688 19.086 15.964 20.67 16.716Z" fill="white"/>
</g>
<defs>
<clipPath id="clip0_28_141">
<rect width="22.773" height="22.773" fill="white"/>
</clipPath>
</defs>
</svg>
