<svg width="23" height="23" viewBox="0 0 23 23" fill="none" xmlns="http://www.w3.org/2000/svg">
<path d="M21.2211 9.6088H12.6635C12.2861 9.6088 11.9807 9.91426 11.9807 10.2916V13.0274C11.9807 13.4047 12.2861 13.7102 12.6635 13.7102H17.4836C16.958 15.0803 15.9697 16.2258 14.7164 16.9535L16.7693 20.5113C20.0621 18.6066 22.0117 15.26 22.0117 11.518C22.0117 10.9834 21.9713 10.6016 21.8949 10.1748C21.832 9.84688 21.549 9.6088 21.2211 9.6088Z" fill="#167EE6"/>
<path d="M11.5225 17.816C9.16406 17.816 7.10664 16.5268 6.00156 14.6221L2.44375 16.6705C4.2541 19.8105 7.6457 21.9219 11.5225 21.9219C13.4271 21.9219 15.2195 21.4098 16.7693 20.5158V20.5113L14.7164 16.9535C13.773 17.5016 12.6859 17.816 11.5225 17.816Z" fill="#12B347"/>
<path d="M16.7648 20.5158V20.5113L14.7119 16.9535C13.773 17.4971 12.6859 17.816 11.5225 17.816V21.9219C13.4271 21.9219 15.2195 21.4098 16.7648 20.5158Z" fill="#0F993E"/>
<path d="M5.13906 11.4326C5.13906 10.2691 5.45801 9.18204 6.00156 8.24317L2.44375 6.19473C1.54531 7.73555 1.0332 9.52344 1.0332 11.4326C1.0332 13.3418 1.54531 15.1297 2.44375 16.6705L6.00156 14.6221C5.45352 13.6832 5.13906 12.5961 5.13906 11.4326Z" fill="#FFD500"/>
<path d="M11.5225 5.04922C13.0588 5.04922 14.4738 5.59727 15.5744 6.50469C15.8484 6.7293 16.2437 6.71133 16.4908 6.46426L18.427 4.52813C18.71 4.24512 18.6875 3.78242 18.3865 3.52188C16.5402 1.91367 14.1369 0.943359 11.5225 0.943359C7.6457 0.943359 4.2541 3.05469 2.44375 6.19473L6.00156 8.24316C7.10664 6.33848 9.16406 5.04922 11.5225 5.04922Z" fill="#FF4B26"/>
<path d="M15.5744 6.50469C15.8484 6.7293 16.2438 6.71133 16.4908 6.46426L18.427 4.52812C18.71 4.24512 18.6875 3.78242 18.3865 3.52187C16.5402 1.91367 14.1369 0.943359 11.5225 0.943359V5.04922C13.0588 5.04922 14.4738 5.59277 15.5744 6.50469Z" fill="#D93F21"/>
</svg>
