<svg width="90" height="90" viewBox="0 0 90 90" fill="none" xmlns="http://www.w3.org/2000/svg">
<rect width="90" height="90" fill="#BCBCBC"/>
<g opacity="0.5">
<path d="M75 66.2V69C75 72.3 72.3 75 69 75H21C17.7 75 15 72.3 15 69V66.2C15 58.9 23.5 54.5 31.5 51C31.8 50.9 32 50.8 32.3 50.6C32.9 50.3 33.6 50.3 34.2 50.7C37.4 52.8 41.1 54 45 54C48.9 54 52.6 52.8 55.8 50.8C56.4 50.4 57.1 50.4 57.7 50.7C58 50.8 58.2 50.9 58.5 51.1C66.5 54.5 75 58.9 75 66.2Z" fill="white"/>
<path d="M45.0001 48C53.2291 48 59.9001 40.6127 59.9001 31.5C59.9001 22.3873 53.2291 15 45.0001 15C36.7711 15 30.1001 22.3873 30.1001 31.5C30.1001 40.6127 36.7711 48 45.0001 48Z" fill="white"/>
</g>
<g opacity="0.5">
<path d="M75 66.2V69C75 72.3 72.3 75 69 75H21C17.7 75 15 72.3 15 69V66.2C15 58.9 23.5 54.5 31.5 51C31.8 50.9 32 50.8 32.3 50.6C32.9 50.3 33.6 50.3 34.2 50.7C37.4 52.8 41.1 54 45 54C48.9 54 52.6 52.8 55.8 50.8C56.4 50.4 57.1 50.4 57.7 50.7C58 50.8 58.2 50.9 58.5 51.1C66.5 54.5 75 58.9 75 66.2Z" fill="white"/>
<path d="M45.0001 48C53.2291 48 59.9001 40.6127 59.9001 31.5C59.9001 22.3873 53.2291 15 45.0001 15C36.7711 15 30.1001 22.3873 30.1001 31.5C30.1001 40.6127 36.7711 48 45.0001 48Z" fill="white"/>
</g>
<g opacity="0.5">
<path d="M75 66.2V69C75 72.3 72.3 75 69 75H21C17.7 75 15 72.3 15 69V66.2C15 58.9 23.5 54.5 31.5 51C31.8 50.9 32 50.8 32.3 50.6C32.9 50.3 33.6 50.3 34.2 50.7C37.4 52.8 41.1 54 45 54C48.9 54 52.6 52.8 55.8 50.8C56.4 50.4 57.1 50.4 57.7 50.7C58 50.8 58.2 50.9 58.5 51.1C66.5 54.5 75 58.9 75 66.2Z" fill="white"/>
<path d="M45.0001 48C53.2291 48 59.9001 40.6127 59.9001 31.5C59.9001 22.3873 53.2291 15 45.0001 15C36.7711 15 30.1001 22.3873 30.1001 31.5C30.1001 40.6127 36.7711 48 45.0001 48Z" fill="white"/>
<g opacity="0.5">
<path d="M75 66.2V69C75 72.3 72.3 75 69 75H21C17.7 75 15 72.3 15 69V66.2C15 58.9 23.5 54.5 31.5 51C31.8 50.9 32 50.8 32.3 50.6C32.9 50.3 33.6 50.3 34.2 50.7C37.4 52.8 41.1 54 45 54C48.9 54 52.6 52.8 55.8 50.8C56.4 50.4 57.1 50.4 57.7 50.7C58 50.8 58.2 50.9 58.5 51.1C66.5 54.5 75 58.9 75 66.2Z" fill="white"/>
<path d="M45.0001 48C53.2291 48 59.9001 40.6127 59.9001 31.5C59.9001 22.3873 53.2291 15 45.0001 15C36.7711 15 30.1001 22.3873 30.1001 31.5C30.1001 40.6127 36.7711 48 45.0001 48Z" fill="white"/>
<g opacity="0.5">
<path d="M75 66.2V69C75 72.3 72.3 75 69 75H21C17.7 75 15 72.3 15 69V66.2C15 58.9 23.5 54.5 31.5 51C31.8 50.9 32 50.8 32.3 50.6C32.9 50.3 33.6 50.3 34.2 50.7C37.4 52.8 41.1 54 45 54C48.9 54 52.6 52.8 55.8 50.8C56.4 50.4 57.1 50.4 57.7 50.7C58 50.8 58.2 50.9 58.5 51.1C66.5 54.5 75 58.9 75 66.2Z" fill="white"/>
<path d="M45.0001 48C53.2291 48 59.9001 40.6127 59.9001 31.5C59.9001 22.3873 53.2291 15 45.0001 15C36.7711 15 30.1001 22.3873 30.1001 31.5C30.1001 40.6127 36.7711 48 45.0001 48Z" fill="white"/>
<g opacity="0.5">
<path d="M75 66.2V69C75 72.3 72.3 75 69 75H21C17.7 75 15 72.3 15 69V66.2C15 58.9 23.5 54.5 31.5 51C31.8 50.9 32 50.8 32.3 50.6C32.9 50.3 33.6 50.3 34.2 50.7C37.4 52.8 41.1 54 45 54C48.9 54 52.6 52.8 55.8 50.8C56.4 50.4 57.1 50.4 57.7 50.7C58 50.8 58.2 50.9 58.5 51.1C66.5 54.5 75 58.9 75 66.2Z" fill="white"/>
<path d="M45.0001 48C53.2291 48 59.9001 40.6127 59.9001 31.5C59.9001 22.3873 53.2291 15 45.0001 15C36.7711 15 30.1001 22.3873 30.1001 31.5C30.1001 40.6127 36.7711 48 45.0001 48Z" fill="white"/>
</g>
</g>
</g>
</g>
</svg>
